<svg width="122" height="127" viewBox="0 0 122 127" fill="none" xmlns="http://www.w3.org/2000/svg">
<g clip-path="url(#clip0_6412_3539)">
<g clip-path="url(#clip1_6412_3539)">
<path d="M80.0387 38.0901L79.9387 62.2301L43.8587 83.2001L43.9587 59.0501L80.0387 38.0901Z" fill="#D3ADF9"/>
<path d="M43.9587 59.05L43.8587 83.2001L-7.32129 84.2701L-7.21129 60.13L43.9587 59.05Z" fill="#DFC4FA"/>
<path d="M80.0487 38.0901L43.9587 59.0901L-7.21128 60.1301C-7.30128 52.4101 -2.24128 44.7001 7.88872 38.8101C27.6987 27.3101 59.6087 27.0701 80.0487 38.0901Z" fill="#E6CFFB"/>
<g style="mix-blend-mode:soft-light">
<path d="M-5.70129 60.13C-5.70129 60.13 9.29871 59.38 41.3587 59.05C41.3587 59.05 19.0987 60 -5.70129 60.13Z" fill="white"/>
</g>
<path d="M98.9687 69.25C98.9687 69.51 98.9687 69.77 98.9087 70.03C98.8487 70.29 98.8487 70.49 98.8187 70.72C98.7887 70.95 98.7487 71.23 98.6987 71.49C98.6487 71.75 98.6087 71.95 98.5587 72.18C98.5087 72.41 98.4387 72.68 98.3687 72.94C98.2987 73.2 98.2387 73.39 98.1687 73.62C98.0987 73.85 98.0087 74.12 97.9187 74.37C97.8287 74.62 97.7587 74.82 97.6687 75.05C97.5787 75.28 97.4587 75.57 97.3387 75.83C97.2187 76.09 97.1387 76.27 97.0287 76.49C96.9187 76.71 96.7687 77 96.6287 77.26C96.4887 77.52 96.3987 77.68 96.2787 77.89C96.1587 78.1 95.9087 78.51 95.7087 78.81C95.5087 79.11 95.4787 79.19 95.3487 79.37C95.1187 79.71 94.8687 80.04 94.6187 80.37L94.2587 80.84L94.0887 81.05C93.8187 81.39 93.5287 81.72 93.2387 82.05L92.9987 82.31C92.6487 82.69 92.2887 83.07 91.9187 83.44L91.6987 83.65L90.8187 84.47C90.5787 84.69 90.3287 84.9 90.0687 85.12L89.3587 85.72L88.5387 86.35C88.2887 86.55 88.0287 86.74 87.7687 86.93C87.5087 87.12 87.1887 87.35 86.8887 87.55L86.0587 88.11L85.1187 88.71C84.7187 88.96 84.3287 89.21 83.9087 89.45C83.1287 89.9 82.3187 90.33 81.5087 90.75L80.8987 91.06C80.0687 91.46 79.2387 91.86 78.3887 92.24H78.3187C77.4787 92.61 76.6187 92.95 75.7587 93.24L75.0887 93.49C74.1987 93.82 73.2987 94.14 72.3887 94.49L72.0487 94.59C71.4187 94.79 70.7987 94.98 70.1687 95.16L69.3787 95.37L67.8887 95.77L66.9887 95.98L65.5787 96.31L64.5787 96.51C64.1087 96.6 63.6487 96.7 63.1787 96.78L62.3087 96.94C61.3087 97.11 60.3087 97.27 59.3787 97.41H59.2887C58.2887 97.54 57.3687 97.65 56.3987 97.75L55.5687 97.84L53.7787 98L52.9687 98.06C52.0987 98.06 51.2287 98.16 50.3487 98.19L50.2487 122.39C51.1187 122.39 51.9887 122.31 52.8587 122.25C53.1387 122.25 53.4087 122.25 53.6787 122.19C54.2887 122.19 54.8987 122.1 55.4987 122.04H55.9587H56.3387C57.3387 121.94 58.2587 121.83 59.2187 121.7H59.3187C60.3187 121.56 61.2687 121.4 62.2387 121.23L62.5987 121.17L63.1187 121.07L64.5087 120.8L65.5087 120.59L66.9087 120.27L67.8187 120.05C68.3187 119.93 68.8187 119.79 69.2987 119.66L70.0887 119.45L71.9787 118.88L72.2887 118.78C73.2087 118.49 74.1087 118.17 74.9987 117.84L75.6587 117.59C76.5287 117.26 77.3887 116.92 78.2287 116.59H78.2887C79.1487 116.22 79.9787 115.82 80.7987 115.41L81.4087 115.11C82.2287 114.69 83.0387 114.26 83.8187 113.8L84.4487 113.43L85.0187 113.07L86.0187 112.47L86.8387 111.91C87.1387 111.7 87.4387 111.5 87.7187 111.29C87.9987 111.08 88.2387 110.91 88.4887 110.71C88.7387 110.51 89.0487 110.29 89.3087 110.07L90.0287 109.48L90.7787 108.82L91.0887 108.55L91.6587 108L91.8687 107.8C92.2487 107.43 92.6087 107.05 92.9587 106.67L93.1887 106.4C93.4887 106.08 93.7687 105.74 94.0387 105.4L94.2187 105.19L94.2987 105.09L94.5687 104.72C94.8187 104.38 95.0687 104.05 95.2987 103.72L95.6687 103.16C95.8687 102.86 96.0587 102.55 96.2387 102.24C96.2387 102.15 96.3487 102.07 96.3887 101.99C96.4287 101.91 96.5187 101.73 96.5887 101.61L96.9887 100.84L97.2987 100.18C97.4087 99.92 97.5187 99.66 97.6187 99.39C97.6747 99.276 97.7248 99.1592 97.7687 99.04C97.7687 98.94 97.8387 98.83 97.8787 98.72C97.9187 98.61 98.0487 98.22 98.1287 97.97C98.2087 97.72 98.2687 97.51 98.3287 97.28C98.3887 97.05 98.4587 96.78 98.5087 96.53C98.5587 96.28 98.5887 96.25 98.6087 96.12C98.6287 95.99 98.6087 95.93 98.6587 95.84L98.7787 95.06C98.7787 94.84 98.8387 94.61 98.8587 94.38C98.8787 94.15 98.9087 93.86 98.9187 93.6C98.9287 93.34 98.9187 93.3 98.9187 93.14C98.9187 92.98 98.9187 92.83 98.9187 92.68L99.0287 68.48C98.9987 68.64 98.9787 69 98.9687 69.25Z" fill="#6B23BB"/>
<path d="M50.3487 98.21L50.2487 122.41L48.7787 92.8L48.8887 68.6L50.3487 98.21Z" fill="black"/>
<path d="M84.9287 47.66C104.009 59.46 103.709 77.95 83.9287 89.46C74.6087 94.87 62.6087 97.79 50.3687 98.21L48.8887 68.6L84.9287 47.66Z" fill="#9B78C4"/>
<g style="mix-blend-mode:soft-light">
<path d="M53.7787 98.0001C53.7787 98.0001 87.9687 96.2401 97.9187 74.3501C97.9187 74.3701 93.2187 94.4401 53.7787 98.0001Z" fill="white"/>
</g>
<path d="M40.1687 97.91L38.8087 97.85L37.6987 97.8L36.3287 97.71L35.1987 97.62L33.8187 97.49L32.6987 97.38L31.2887 97.2L30.2887 97.06L28.4387 96.77L27.7987 96.67C26.9687 96.52 26.1487 96.37 25.3287 96.2L24.9787 96.12C24.2387 95.96 23.4987 95.8 22.7687 95.62L21.9187 95.4C21.3587 95.26 20.7987 95.12 20.2487 94.96L19.4187 94.72C18.6387 94.49 17.8587 94.25 17.0987 94L16.5187 93.82C15.6087 93.5 14.6987 93.17 13.8087 92.82L12.6987 92.37L11.7587 92C11.3587 91.83 10.9687 91.64 10.5687 91.46C10.1687 91.28 10.0387 91.23 9.77873 91.1C9.33873 90.9 8.91873 90.68 8.49873 90.47L7.84873 90.14C7.2154 89.8133 6.5954 89.48 5.98873 89.14C-0.941269 85.14 -5.52127 80.29 -7.75127 75.14C-8.46961 73.5018 -8.95758 71.7721 -9.20127 70L-9.30127 87.94C-8.41127 94.94 -3.36127 101.75 5.87873 107.08C6.48873 107.44 7.10873 107.78 7.73873 108.08C7.95873 108.19 8.17873 108.29 8.39873 108.41L9.66873 109.04L10.4687 109.4L11.6987 110C11.9787 110.13 12.2787 110.24 12.5687 110.36C12.8587 110.48 13.1587 110.62 13.4687 110.74L13.6687 110.81C14.5687 111.16 15.4687 111.49 16.3887 111.81L16.9587 112C17.7287 112.25 18.4987 112.49 19.2787 112.72L19.7187 112.85L20.1087 112.96L21.7787 113.4L22.6387 113.62L24.8487 114.12L25.1587 114.19C25.9687 114.36 26.7887 114.52 27.6187 114.66L28.2687 114.76C28.8787 114.87 29.4887 114.97 30.1087 115.06H30.2487L31.1687 115.17C31.6387 115.23 32.0987 115.3 32.5687 115.35L33.6787 115.46L35.0587 115.6H35.2987C35.5887 115.6 35.8887 115.6 36.1887 115.66L37.5587 115.76H38.7087H40.0687H40.4087H42.1687L42.2687 98L40.1687 97.91Z" fill="#9F47E8"/>
<path d="M40.8387 69L42.2687 98C29.1387 97.92 16.0387 95 5.98871 89.19C-3.25129 83.8 -8.30129 77 -9.20129 70L40.8387 69Z" fill="#B876EC"/>
<g style="mix-blend-mode:soft-light">
<path d="M-8.50128 73.38C-8.50128 73.38 -3.30128 90.09 24.9087 96.12C24.9087 96.12 -1.47128 92.56 -8.50128 73.38Z" fill="white"/>
</g>
</g>
</g>
<defs>
<clipPath id="clip0_6412_3539">
<rect width="120.801" height="125.93" fill="white" transform="translate(0.897461 0.89502)"/>
</clipPath>
<clipPath id="clip1_6412_3539">
<rect width="108.31" height="92.41" fill="white" transform="translate(-9.30127 30)"/>
</clipPath>
</defs>
</svg>
