<svg width="33" height="39" viewBox="0 0 33 39" fill="none" xmlns="http://www.w3.org/2000/svg">
<path d="M9.88721 38.3687C9.53379 38.3687 9.19065 38.2498 8.91296 38.0312L0.826459 31.675C0.639238 31.5276 0.487898 31.3396 0.383839 31.1253C0.27978 30.9109 0.225711 30.6757 0.225708 30.4375V16.1702C0.225708 15.7525 0.391646 15.3519 0.687015 15.0565C0.982385 14.7612 1.38299 14.5952 1.80071 14.5952H15.6945C16.1122 14.5952 16.5128 14.7612 16.8081 15.0565C17.1035 15.3519 17.2695 15.7525 17.2695 16.1702C17.2695 16.5879 17.1035 16.9885 16.8081 17.2839C16.5128 17.5793 16.1122 17.7452 15.6945 17.7452H3.37571V29.6702L8.31221 33.556V23.2915C8.31221 22.8738 8.47815 22.4731 8.77352 22.1778C9.06889 21.8824 9.46949 21.7165 9.88721 21.7165H16.1197C16.8478 21.7312 17.5715 21.6006 18.2484 21.3322C18.9254 21.0637 19.542 20.663 20.0621 20.1533C20.5823 19.6436 20.9955 19.0352 21.2775 18.3639C21.5596 17.6925 21.7049 16.9716 21.7049 16.2433C21.7049 15.5151 21.5596 14.7942 21.2775 14.1228C20.9955 13.4515 20.5823 12.8431 20.0621 12.3334C19.542 11.8237 18.9254 11.4229 18.2484 11.1545C17.5715 10.8861 16.8478 10.7555 16.1197 10.7702H1.80071C1.38299 10.7702 0.982385 10.6043 0.687015 10.3089C0.391646 10.0135 0.225708 9.61293 0.225708 9.19522V1.62847C0.225708 1.21075 0.391646 0.810144 0.687015 0.514774C0.982385 0.219404 1.38299 0.0534668 1.80071 0.0534668H16.7137C20.9684 0.0534668 25.0489 1.74365 28.0575 4.75221C31.066 7.76076 32.7562 11.8412 32.7562 16.096C32.7562 20.3507 31.066 24.4312 28.0575 27.4397C25.0489 30.4483 20.9684 32.1385 16.7137 32.1385H16.3425C15.9247 32.1385 15.5241 31.9725 15.2288 31.6772C14.9334 31.3818 14.7675 30.9812 14.7675 30.5635C14.7675 30.1458 14.9334 29.7451 15.2288 29.4498C15.5241 29.1544 15.9247 28.9885 16.3425 28.9885H16.7137C18.4068 28.9885 20.0833 28.655 21.6475 28.0071C23.2116 27.3592 24.6329 26.4095 25.8301 25.2123C27.0273 24.0152 27.9769 22.5939 28.6248 21.0297C29.2727 19.4655 29.6062 17.789 29.6062 16.096C29.6062 14.4029 29.2727 12.7264 28.6248 11.1622C27.9769 9.59803 27.0273 8.17677 25.8301 6.97959C24.6329 5.78241 23.2116 4.83276 21.6475 4.18485C20.0833 3.53694 18.4068 3.20347 16.7137 3.20347H3.37571V7.62022H16.1197C17.2638 7.60173 18.4002 7.81112 19.4626 8.23618C20.525 8.66123 21.4922 9.29346 22.3078 10.096C23.1235 10.8986 23.7712 11.8554 24.2134 12.9108C24.6555 13.9662 24.8833 15.0991 24.8833 16.2433C24.8833 17.3876 24.6555 18.5205 24.2134 19.5758C23.7712 20.6312 23.1235 21.5881 22.3078 22.3907C21.4922 23.1932 20.525 23.8254 19.4626 24.2505C18.4002 24.6756 17.2638 24.8849 16.1197 24.8665H11.4622V36.7915C11.4622 37.2092 11.2963 37.6098 11.0009 37.9052C10.7055 38.2005 10.3049 38.3665 9.88721 38.3665V38.3687Z" fill="url(#paint0_linear_6460_24)"/>
<defs>
<linearGradient id="paint0_linear_6460_24" x1="-1.25479" y1="29.5982" x2="25.8195" y2="2.52397" gradientUnits="userSpaceOnUse">
<stop offset="0.2" stop-color="#AB57E8"/>
<stop offset="0.33" stop-color="#AD5BE8"/>
<stop offset="0.47" stop-color="#B168E9"/>
<stop offset="0.6" stop-color="#B97CEB"/>
<stop offset="0.74" stop-color="#C499EE"/>
<stop offset="0.8" stop-color="#CAA8EF"/>
</linearGradient>
</defs>
</svg>
