<svg width="43" height="43" viewBox="0 0 43 43" fill="none" xmlns="http://www.w3.org/2000/svg">
<g clip-path="url(#clip0_6413_122775)">
<circle cx="21.5" cy="21.5" r="21.25" fill="url(#paint0_linear_6413_122775)"/>
<circle cx="21.5" cy="21.5" r="15.25" fill="#6419B7"/>
<path d="M13.5033 22.5006H26.5033L24.9033 23.7006C24.7982 23.7794 24.7097 23.8781 24.6428 23.9911C24.5759 24.1041 24.5319 24.2292 24.5133 24.3592C24.4948 24.4892 24.502 24.6216 24.5346 24.7488C24.5672 24.876 24.6245 24.9955 24.7033 25.1006C24.7964 25.2248 24.9172 25.3256 25.0561 25.395C25.1949 25.4644 25.3481 25.5006 25.5033 25.5006C25.7197 25.5006 25.9302 25.4304 26.1033 25.3006L30.1033 22.3006C30.2256 22.2073 30.3247 22.087 30.393 21.9491C30.4612 21.8112 30.4967 21.6594 30.4967 21.5056C30.4967 21.3517 30.4612 21.2 30.393 21.0621C30.3247 20.9242 30.2256 20.8039 30.1033 20.7106L26.2433 17.7106C26.0338 17.5475 25.768 17.4743 25.5046 17.5071C25.2411 17.5399 25.0014 17.6761 24.8383 17.8856C24.6752 18.0951 24.602 18.3608 24.6348 18.6243C24.6676 18.8878 24.8038 19.1275 25.0133 19.2906L26.5833 20.5006H13.5033C13.2381 20.5006 12.9837 20.6059 12.7962 20.7935C12.6087 20.981 12.5033 21.2354 12.5033 21.5006C12.5033 21.7658 12.6087 22.0202 12.7962 22.2077C12.9837 22.3952 13.2381 22.5006 13.5033 22.5006Z" fill="white"/>
</g>
<defs>
<linearGradient id="paint0_linear_6413_122775" x1="21.5" y1="0.25" x2="21.5" y2="42.75" gradientUnits="userSpaceOnUse">
<stop stop-color="#2C0055"/>
<stop offset="0.458333" stop-color="#0A0118"/>
<stop offset="1" stop-color="#10012A"/>
</linearGradient>
<clipPath id="clip0_6413_122775">
<rect width="43" height="43" fill="white"/>
</clipPath>
</defs>
</svg>
