<svg width="122" height="126" viewBox="0 0 122 126" fill="none" xmlns="http://www.w3.org/2000/svg">
<g clip-path="url(#clip0_6412_3257)">
<path opacity="0.3" d="M0.897461 92.9899L64.5813 56.2219L121.699 89.1969L58.0149 125.965L0.897461 92.9899Z" fill="black"/>
<path d="M57.7752 118.634L13.3421 92.9797L64.3417 63.5352L108.775 89.1892L57.7752 118.634Z" fill="url(#paint0_linear_6412_3257)"/>
<path d="M57.7753 118.774L108.775 89.3295V25.689L57.7753 55.1335V118.774Z" fill="url(#paint1_linear_6412_3257)"/>
<path d="M103.197 35.8496V85.6103L72.147 103.541L63.8217 108.346L63.3527 108.616V58.8526L69.3022 55.4215L69.6005 55.2482L81.8871 48.1541L90.2787 43.3082L95.6343 40.2187L103.037 35.9439L103.197 35.8496Z" fill="black"/>
<path d="M57.7752 118.774L13.3421 93.12V29.4794L57.7752 55.1334V118.774Z" fill="url(#paint2_linear_6412_3257)"/>
<path d="M108.775 25.6915L87.4135 38.0214L70.3958 47.8482L57.7753 55.1334L53.3755 52.592L31.9428 40.2187L13.3447 29.4794L31.9428 18.7401L53.3755 6.36685L64.3443 0.0349121L70.3958 3.52971L87.4135 13.3564L108.775 25.6915Z" fill="url(#paint3_linear_6412_3257)"/>
<path d="M64.3417 0.0374146L106.679 25.6889L57.7752 53.5683L15.1698 29.4794L31.461 19.0205L13.3421 29.4794L57.7752 55.1334L108.775 25.6889L64.3417 0.0374146Z" fill="url(#paint4_linear_6412_3257)"/>
<path d="M28.3435 71.3406L26.8523 72.2073L26.8268 81.3457L30.11 86.2272L31.6012 85.3606L28.3154 80.4765L28.3435 71.3406Z" fill="black"/>
<path d="M32.2054 89.9259C32.2046 90.0004 32.1969 90.0746 32.1824 90.1477C32.1702 90.211 32.1505 90.2726 32.1238 90.3312C32.1037 90.3765 32.077 90.4186 32.0448 90.4561C32.0348 90.4675 32.0255 90.4794 32.0167 90.4918C31.9825 90.5296 31.943 90.5622 31.8995 90.5887L33.3907 89.722C33.4342 89.6955 33.4737 89.6629 33.5079 89.6251L33.536 89.5894L33.5742 89.5436L33.6125 89.4722V89.4594C33.6203 89.4438 33.6271 89.4276 33.6329 89.411C33.64 89.3927 33.6459 89.374 33.6507 89.3549L33.666 89.3014C33.666 89.3014 33.666 89.2835 33.666 89.2759C33.666 89.2759 33.666 89.2632 33.666 89.2581V89.2071C33.666 89.1892 33.666 89.1739 33.666 89.1561C33.666 89.1382 33.666 89.123 33.666 89.1077C33.666 89.0924 33.666 89.0745 33.666 89.0567L33.6915 79.9156L32.2003 80.7823L32.2054 89.9259Z" fill="black"/>
<path d="M25.3942 69.0464C25.4603 69.0528 25.5254 69.0674 25.5879 69.0897C25.6614 69.115 25.7323 69.1475 25.7995 69.1866L35.068 74.5397C35.1419 74.5817 35.2119 74.6303 35.277 74.685C35.3458 74.7406 35.4105 74.8011 35.4707 74.866C35.5972 75.0015 35.7075 75.1512 35.7995 75.3121C35.8458 75.3943 35.8867 75.4794 35.9219 75.567C35.9577 75.6502 35.9892 75.7353 36.0162 75.8219C36.0422 75.9054 36.0627 75.9905 36.0774 76.0768C36.0904 76.1611 36.0972 76.2463 36.0978 76.3317C36.0979 76.4078 36.0911 76.4837 36.0774 76.5586C36.0656 76.6228 36.0459 76.6853 36.0188 76.7446C35.9991 76.7894 35.9724 76.8307 35.9397 76.867C35.931 76.8794 35.9217 76.8913 35.9117 76.9027C35.8785 76.9405 35.8398 76.9731 35.797 76.9995L37.2882 76.1329C37.331 76.1064 37.3697 76.0738 37.4029 76.036C37.4136 76.0252 37.423 76.0133 37.431 76.0003C37.4451 75.9862 37.4579 75.9708 37.4692 75.9544C37.4843 75.9315 37.4979 75.9077 37.51 75.883L37.5329 75.8295C37.5329 75.8117 37.5457 75.7938 37.5508 75.776C37.5562 75.7585 37.5605 75.7406 37.5635 75.7225C37.5635 75.7225 37.5635 75.7046 37.5635 75.697C37.5635 75.697 37.5635 75.6817 37.5635 75.674V75.6256C37.5648 75.6086 37.5648 75.5916 37.5635 75.5746C37.5635 75.5568 37.5635 75.5415 37.5635 75.5236V75.4879V75.4395C37.5635 75.4242 37.5635 75.4064 37.5635 75.3885C37.5635 75.3707 37.5635 75.3554 37.5635 75.3375C37.5646 75.3206 37.5646 75.3035 37.5635 75.2866V75.233C37.565 75.2161 37.565 75.199 37.5635 75.182C37.565 75.1634 37.565 75.1446 37.5635 75.126C37.5635 75.1081 37.5635 75.0903 37.5635 75.0699L37.5482 75.0164C37.5455 75.0015 37.5412 74.987 37.5355 74.973V74.9603C37.5355 74.9424 37.5227 74.9246 37.5176 74.9042C37.5125 74.8838 37.5176 74.8685 37.4998 74.8507C37.4819 74.8328 37.4998 74.8175 37.4794 74.7997L37.459 74.7487L37.4437 74.7105L37.4208 74.6595C37.4208 74.6416 37.4029 74.6212 37.3927 74.6034C37.3825 74.5856 37.3723 74.5626 37.3596 74.5422C37.3468 74.5218 37.3366 74.4963 37.3239 74.4734V74.4581L37.2474 74.3358L37.1812 74.2414C37.1663 74.2201 37.1501 74.1996 37.1327 74.1803C37.1205 74.1622 37.1069 74.1451 37.0919 74.1293L37.0537 74.0808L37.0129 74.0375L36.9823 74.0044L36.9364 73.961L36.8906 73.9177L36.8447 73.8769L36.8192 73.8565L36.8013 73.8412L36.7555 73.8055L36.7096 73.7724L36.6662 73.7444L36.6204 73.7163L27.3519 68.3632L27.3187 68.3454L27.2754 68.3225L27.2321 68.3021L27.1913 68.2842L27.1479 68.2689H27.1174H27.074H27.0307H26.9848H26.8344H26.7732L26.7019 68.2868C26.6724 68.2972 26.6442 68.3109 26.6177 68.3276L25.0602 69.1152C25.1083 69.0868 25.1609 69.0669 25.2157 69.0566C25.2745 69.0451 25.3345 69.0417 25.3942 69.0464Z" fill="black"/>
<path d="M38.9349 79.7398L38.884 79.755C38.794 79.7728 38.7028 79.7839 38.6112 79.7882H38.5551C38.4626 79.7945 38.3698 79.7945 38.2773 79.7882H38.2441C38.1447 79.7882 38.0453 79.7627 37.9408 79.7423H37.9102C37.8057 79.7194 37.6986 79.6888 37.589 79.6531H37.5661C37.4539 79.6148 37.3367 79.569 37.2194 79.5154L37.199 79.5027C37.0751 79.4472 36.9542 79.3851 36.837 79.3166L32.6769 76.9154L32.6438 76.8975L32.603 76.8746L32.5597 76.8542L32.5189 76.8363L32.4755 76.8211H32.4475L32.4042 76.8083H32.3608H32.315H32.1646C32.1442 76.8069 32.1237 76.8069 32.1034 76.8083L32.0346 76.8261C32.0041 76.8361 31.9749 76.8498 31.9479 76.8669L30.4567 77.7336C30.5047 77.7052 30.5573 77.6853 30.6122 77.675C30.6705 77.6673 30.7297 77.6673 30.788 77.675C30.8541 77.6805 30.9191 77.6942 30.9818 77.7158C31.0557 77.74 31.1267 77.7725 31.1934 77.8126L35.3535 80.2139L35.4682 80.2776C35.5192 80.3057 35.5676 80.3311 35.6186 80.3541C35.6696 80.377 35.6823 80.3847 35.7154 80.4L35.7384 80.4127L35.7639 80.4255L35.9092 80.4866L36.057 80.5402H36.0825H36.1054L36.2023 80.5708C36.2533 80.5861 36.3043 80.6013 36.3527 80.6115L36.4266 80.6294H36.4572H36.5031C36.5566 80.6294 36.6102 80.6498 36.6611 80.6574H36.7606H36.8243H36.9951H37.0715H37.1863C37.2576 80.6574 37.3265 80.6396 37.3953 80.6268L37.4463 80.6115C37.5144 80.5967 37.5817 80.578 37.6476 80.5555H37.6629C37.7598 80.52 37.8536 80.4765 37.9433 80.4255L39.4346 79.5588C39.3448 79.6098 39.2511 79.6533 39.1542 79.6888C39.0821 79.71 39.0089 79.727 38.9349 79.7398Z" fill="black"/>
<path d="M26.8829 61.0626V64.4478L35.3764 69.3701C35.5702 69.4823 35.7613 69.6046 35.95 69.7346L35.9857 69.7601C36.1556 69.8825 36.3255 70.0125 36.4955 70.1501L36.5541 70.1986C36.7198 70.3337 36.8829 70.4764 37.041 70.6243L37.0996 70.6778C37.2628 70.8307 37.4208 70.9913 37.5763 71.157L37.6145 71.1953C37.7802 71.3737 37.9434 71.5572 38.1014 71.7484C38.2612 71.9421 38.4166 72.141 38.5679 72.3449L38.5857 72.3729C38.7183 72.5514 38.8406 72.7349 38.9681 72.9235C39.0497 73.0459 39.1261 73.1784 39.2052 73.3008C39.2842 73.4232 39.3326 73.5022 39.3938 73.6067L39.4779 73.7571C39.5773 73.9355 39.6767 74.1114 39.7685 74.2924L39.7991 74.3536C39.9096 74.5728 40.0141 74.7946 40.1126 75.0189L40.1279 75.0546C40.2222 75.2738 40.3115 75.4956 40.3956 75.7173L40.4109 75.7607C40.495 75.9901 40.5715 76.217 40.6428 76.4464C40.6428 76.4591 40.6428 76.4719 40.6428 76.4872C40.7091 76.7064 40.7678 76.9282 40.8187 77.1474L40.834 77.2111C40.885 77.4354 40.9309 77.6623 40.9666 77.8866C40.9668 77.8909 40.9668 77.8951 40.9666 77.8994C41.0023 78.1262 41.0303 78.3505 41.0482 78.5749C41.0482 78.5927 41.0482 78.6106 41.0482 78.6284C41.066 78.8527 41.0762 79.0745 41.0736 79.2937C41.0711 79.5129 41.0736 79.7194 41.0431 79.9233C41.0443 79.9412 41.0443 79.959 41.0431 79.9769C41.0264 80.1574 41 80.337 40.964 80.5147C40.961 80.537 40.9568 80.5592 40.9513 80.581C40.9182 80.7467 40.8748 80.9073 40.8289 81.0602L40.7983 81.1443C40.753 81.285 40.6994 81.4229 40.6377 81.5573C40.6329 81.5713 40.6269 81.585 40.6199 81.5981C40.5523 81.7426 40.4748 81.8823 40.3879 82.0161C40.3879 82.0365 40.3624 82.0518 40.3497 82.0722C40.2892 82.1748 40.2237 82.2743 40.1534 82.3705C40.1254 82.4036 40.0948 82.4342 40.0642 82.4673C39.9958 82.5408 39.9234 82.6106 39.8475 82.6763L39.7558 82.7579C39.6498 82.8427 39.5383 82.9202 39.4218 82.9899L40.9181 82.1155C41.0346 82.0459 41.1461 81.9684 41.2521 81.8836L41.3438 81.802C41.4198 81.7363 41.4921 81.6665 41.5605 81.593C41.5911 81.5624 41.6191 81.5293 41.6497 81.4961C41.7277 81.403 41.8008 81.306 41.869 81.2055C41.869 81.1851 41.897 81.1698 41.9072 81.152V81.1392C41.9875 81.0121 42.0598 80.8802 42.1239 80.7441C42.1252 80.74 42.1252 80.7355 42.1239 80.7314C42.1309 80.7192 42.1368 80.7064 42.1417 80.6932C42.1825 80.6048 42.2207 80.513 42.2564 80.4179C42.2743 80.372 42.287 80.3235 42.3049 80.2777C42.3227 80.2318 42.3227 80.2216 42.3329 80.1935C42.3431 80.1655 42.3507 80.1426 42.3584 80.1145C42.3864 80.0202 42.4119 79.9208 42.4349 79.8214C42.4349 79.7857 42.4349 79.75 42.4552 79.7143C42.461 79.6925 42.4652 79.6704 42.468 79.648L42.4909 79.541C42.5062 79.4517 42.519 79.36 42.5317 79.2657L42.547 79.1102C42.5483 79.0924 42.5483 79.0745 42.547 79.0566V78.9904C42.547 78.9011 42.5598 78.8119 42.5649 78.7202C42.57 78.6284 42.5649 78.5366 42.5649 78.4423V78.427C42.5649 78.3403 42.5649 78.2537 42.5649 78.1721C42.5649 78.0905 42.5649 77.9886 42.5521 77.8968C42.5521 77.8535 42.5521 77.8101 42.5521 77.7668C42.5521 77.7235 42.5521 77.7311 42.5521 77.7133V77.619C42.5521 77.5238 42.5419 77.4295 42.5215 77.336C42.5088 77.2417 42.496 77.1448 42.4807 77.048V77.0174C42.468 76.9282 42.4527 76.8389 42.4349 76.7625C42.417 76.686 42.3966 76.5611 42.3737 76.4617C42.3737 76.426 42.3558 76.3878 42.3482 76.3521L42.3329 76.2883C42.3329 76.245 42.3151 76.2042 42.3049 76.1609C42.2794 76.0589 42.2513 75.957 42.2233 75.855C42.1952 75.753 42.1799 75.702 42.157 75.6256C42.157 75.6128 42.157 75.6001 42.157 75.5873C42.157 75.5746 42.157 75.5644 42.1443 75.5516C42.1162 75.4522 42.0831 75.3528 42.0499 75.2534C42.0168 75.154 41.9837 75.0571 41.948 74.9603L41.925 74.9042L41.9097 74.8583L41.8409 74.6773C41.8052 74.5855 41.767 74.4912 41.7288 74.3995L41.6421 74.193L41.6268 74.1598L41.6115 74.1242C41.5707 74.0298 41.5274 73.9381 41.484 73.8438C41.4407 73.7494 41.3872 73.6398 41.3362 73.5404L41.3133 73.492L41.2827 73.4334C41.2419 73.3543 41.2011 73.2728 41.1578 73.1937C41.1144 73.1147 41.0482 72.9975 40.9921 72.898L40.908 72.7477L40.8748 72.689C40.8238 72.6049 40.7703 72.5233 40.7193 72.4341C40.6403 72.3067 40.5638 72.1792 40.4823 72.0569L40.444 71.9931C40.3319 71.8274 40.2172 71.6643 40.0973 71.5037L40.082 71.4782C39.9979 71.366 39.9138 71.2539 39.8271 71.1443C39.7405 71.0347 39.6895 70.9709 39.6181 70.8894L39.3963 70.6345C39.3224 70.5503 39.2459 70.4662 39.172 70.3795L39.1363 70.3413L39.1006 70.3031L38.935 70.1323C38.8559 70.0507 38.7744 69.9691 38.6928 69.8927L38.6214 69.8238L38.5653 69.7729L38.4404 69.6582L38.1855 69.4338L38.0759 69.3446L38.0173 69.2987L37.9306 69.2248L37.6757 69.0336L37.4947 68.9062L37.459 68.8807L37.4259 68.8577C37.3469 68.8017 37.2653 68.7481 37.1837 68.6971C37.1022 68.6462 37.0231 68.5952 36.9416 68.5493L36.8855 68.5162L28.3817 63.6066V60.2214L26.8829 61.0626Z" fill="black"/>
<path d="M41.5197 86.7268C41.6285 86.6759 41.7356 86.6198 41.8409 86.5586L43.3321 85.6945C43.2276 85.7531 43.1206 85.8092 43.011 85.8602L42.8988 85.9086C42.8249 85.9392 42.7484 85.9723 42.6719 86.0003L42.4833 86.0641L42.366 86.0998C42.287 86.1227 42.208 86.1405 42.1264 86.1584L42.0423 86.1788H41.9939C41.8639 86.2043 41.739 86.2221 41.5962 86.2374L41.4535 86.2502C41.3642 86.2502 41.275 86.2502 41.1833 86.2629H41.0303H40.8085H40.6327C40.5715 86.2629 40.5103 86.2629 40.4491 86.2451L40.2426 86.2196L40.0719 86.1915L39.8475 86.1507L39.6997 86.1176L39.4601 86.059L39.3097 86.0156C39.223 85.9927 39.1363 85.9647 39.0548 85.9366L38.9299 85.8958C38.805 85.8525 38.675 85.8066 38.5551 85.7556H38.5399C38.4099 85.7021 38.2849 85.646 38.1447 85.5848L38.0224 85.5288L37.7394 85.3911L37.6018 85.3172C37.4769 85.2509 37.3469 85.1846 37.2245 85.1107L36.9696 84.968L36.9365 84.9501L36.8931 84.9272L36.8524 84.9068L36.809 84.889L36.7682 84.8737H36.7555H36.7249H36.6816H36.6382H36.5924H36.442H36.3808L36.312 84.894C36.282 84.9042 36.253 84.917 36.2253 84.9323L34.7341 85.799C34.7831 85.7727 34.8354 85.753 34.8896 85.7403C34.9479 85.7326 35.0071 85.7326 35.0654 85.7403C35.1315 85.7458 35.1965 85.7595 35.2592 85.7811C35.3327 85.8064 35.4036 85.8389 35.4708 85.878L35.7257 86.0207C35.8174 86.0743 35.9066 86.1253 35.9984 86.1737L36.1004 86.2272L36.2431 86.3011L36.3476 86.3547L36.5235 86.4388L36.6459 86.4949L36.6969 86.5204C36.8116 86.5713 36.9237 86.6198 37.0384 86.6657H37.0537C37.1633 86.709 37.273 86.7523 37.3826 86.7906L37.4285 86.8059L37.5534 86.8466L37.7267 86.9027L37.8159 86.9257L37.9663 86.969L38.081 86.9996L38.2034 87.0276L38.3563 87.0608L38.4328 87.0786L38.5755 87.1016L38.7489 87.1296H38.8075L38.9528 87.1449L39.1389 87.1627H39.1899C39.2332 87.1627 39.274 87.1627 39.3148 87.1627H39.5365H39.5952H39.6895C39.7813 87.1627 39.8705 87.1627 39.9622 87.15H40.0413H40.1024C40.2375 87.1347 40.3701 87.1168 40.5001 87.0914H40.5383L40.625 87.071C40.7066 87.0531 40.7856 87.0353 40.8621 87.0123L40.9793 86.9767L41.1297 86.9282L41.168 86.9129C41.2444 86.8849 41.3209 86.8517 41.3948 86.8212L41.5197 86.7268Z" fill="black"/>
<path d="M47.9409 80.9149C47.9409 80.8844 47.9409 80.8512 47.9409 80.8206C47.9409 80.79 47.9409 80.6906 47.9409 80.6269C47.9409 80.5632 47.9409 80.4765 47.9409 80.4C47.9409 80.3235 47.9409 80.2802 47.9409 80.219C47.9409 80.1579 47.9409 80.0814 47.923 80.0126C47.9052 79.9437 47.923 79.9259 47.923 79.88C47.923 79.7806 47.9001 79.6786 47.8899 79.5792C47.8899 79.5231 47.8899 79.4671 47.872 79.411V79.3574C47.8499 79.179 47.8245 79.0006 47.7956 78.8221C47.7968 78.8171 47.7968 78.8119 47.7956 78.8068L47.7803 78.7125C47.7573 78.5698 47.7318 78.427 47.7064 78.2817C47.7064 78.2537 47.6936 78.2257 47.6885 78.1976C47.6758 78.1237 47.6579 78.0523 47.6452 77.9809C47.6324 77.9096 47.612 77.8102 47.5916 77.726C47.5712 77.6419 47.5687 77.6241 47.5585 77.5731C47.5483 77.5221 47.5203 77.4176 47.5024 77.3386C47.4846 77.2596 47.4769 77.2239 47.4616 77.1652C47.4463 77.1066 47.4234 77.0148 47.403 76.9409L47.3418 76.7089L47.3138 76.5968C47.2832 76.4897 47.2501 76.3852 47.2195 76.2782C47.2016 76.2119 47.1812 76.1481 47.1634 76.0844L47.1481 76.0309C47.092 75.8474 47.0308 75.6613 46.9697 75.4777L46.9416 75.4013C46.8906 75.2483 46.8371 75.0954 46.781 74.9424C46.781 74.9144 46.7606 74.8863 46.7504 74.8583L46.6816 74.6748L46.5847 74.4199L46.5159 74.2465C46.4879 74.1803 46.4624 74.1114 46.4344 74.0426C46.4063 73.9738 46.3961 73.9483 46.3757 73.8998C46.3349 73.7979 46.2891 73.6985 46.2457 73.5991C46.2228 73.5455 46.2024 73.492 46.1794 73.441L46.1565 73.3875C46.08 73.2175 46.001 73.0476 45.9194 72.8777V72.8547L45.8455 72.7043C45.7843 72.5743 45.7206 72.4494 45.6569 72.3118L45.6237 72.2506C45.5702 72.141 45.5141 72.0365 45.4581 71.9294L45.323 71.6745L45.2975 71.6286C45.1496 71.3508 44.9941 71.0755 44.8361 70.8027C44.8208 70.7798 44.808 70.7568 44.7953 70.7339L44.7469 70.6574C44.52 70.2699 44.2804 69.8927 44.0331 69.518L43.9949 69.4568C43.9719 69.4211 43.9464 69.3905 43.9235 69.3574C43.7272 69.0642 43.5258 68.7762 43.3194 68.4958L43.2607 68.4193C43.1307 68.246 43.0058 68.0726 42.8682 67.9095L42.8452 67.8789L42.4476 67.4532L42.3558 67.3411C42.2216 67.1711 42.0839 67.0105 41.9429 66.8593L41.9378 66.821L41.8154 66.6859L41.5401 66.38L41.4917 66.3291L41.3107 66.1379C41.2393 66.0665 41.1705 65.9926 41.1017 65.9212C41.0762 65.8957 41.0507 65.8728 41.0277 65.8473L40.8264 65.6485L40.6505 65.4751L40.5536 65.3833L40.3369 65.182L40.1789 65.0367L40.0616 64.9347C39.9903 64.8684 39.9163 64.8047 39.8424 64.7435L39.7048 64.6212L39.5595 64.5039L39.3453 64.328L39.2306 64.2337L39.0471 64.0961C38.9808 64.0425 38.9145 63.9915 38.8457 63.9431L38.7616 63.8768C38.68 63.8157 38.5959 63.7596 38.5067 63.701C38.4175 63.6423 38.3945 63.6194 38.3359 63.5811L38.29 63.548C38.1405 63.4426 37.9901 63.3432 37.8388 63.2498C37.8286 63.2454 37.8191 63.2393 37.8108 63.2319L37.3902 62.977L37.2857 62.9158L27.3442 57.1727L27.3111 57.1523L27.2678 57.132L27.2244 57.1116L27.1811 57.0937L27.1403 57.0784H27.1276H27.097H27.0536H27.0103C26.9951 57.076 26.9796 57.076 26.9644 57.0784H26.9338H26.814H26.7529C26.7293 57.0829 26.7062 57.0897 26.684 57.0988C26.654 57.1089 26.625 57.1217 26.5974 57.137L25.1061 58.0037C25.1542 57.9753 25.2068 57.9554 25.2616 57.9451C25.3199 57.9361 25.3792 57.9361 25.4375 57.9451C25.5034 57.9528 25.5684 57.9673 25.6313 57.9884C25.7048 58.0137 25.7757 58.0461 25.8428 58.0853L35.7843 63.8284C35.9602 63.9304 36.136 64.0374 36.3094 64.147L36.3349 64.1649C36.5031 64.2719 36.6714 64.3841 36.8447 64.4963L37.018 64.6212L37.3469 64.8582L37.5482 65.0137L37.8465 65.2457L38.0632 65.4216L38.3435 65.6587L38.5653 65.8524L38.8355 66.1073L39.0547 66.3112L39.3275 66.5661L39.5289 66.765C39.6232 66.8593 39.7175 66.9561 39.8093 67.0556L39.9928 67.2467C40.0999 67.364 40.2095 67.4812 40.3165 67.6011L40.4389 67.7387C40.5867 67.9069 40.732 68.0777 40.8773 68.2485L40.9691 68.3607C41.0813 68.4983 41.1934 68.636 41.3056 68.7787C41.4178 68.9215 41.5605 69.1203 41.6981 69.2886L41.7593 69.3701C41.9658 69.6505 42.1672 69.9386 42.3635 70.2292L42.4731 70.3923C42.728 70.7645 42.9599 71.1443 43.1868 71.5318C43.2174 71.5802 43.2454 71.6286 43.2735 71.677C43.4341 71.9498 43.5896 72.2251 43.7374 72.503L43.898 72.8088C43.9541 72.9159 44.0102 73.0204 44.0637 73.13C44.1402 73.2804 44.2116 73.4308 44.2855 73.5838L44.3594 73.7342C44.4512 73.933 44.5404 74.1318 44.6296 74.3306C44.6525 74.3816 44.6729 74.4352 44.6959 74.4861C44.7596 74.634 44.8233 74.7844 44.8845 74.9348C44.9125 75.0011 44.938 75.0699 44.9661 75.1362C45.0222 75.2789 45.0782 75.4217 45.1318 75.567L45.2006 75.753C45.2669 75.9315 45.3306 76.1125 45.3918 76.2934L45.4198 76.3699C45.4886 76.5738 45.5524 76.7803 45.6161 76.9868C45.6339 77.0505 45.6543 77.1143 45.6722 77.1805C45.7155 77.3233 45.7563 77.466 45.7945 77.6113L45.8557 77.8433C45.8914 77.9758 45.9245 78.1084 45.9551 78.2409C45.973 78.32 45.9934 78.3964 46.0087 78.4755C46.0418 78.6106 46.0698 78.7457 46.0979 78.8808C46.1106 78.9547 46.1259 79.0261 46.1412 79.1C46.1743 79.2708 46.2049 79.4441 46.233 79.6098L46.2483 79.7041C46.2814 79.9055 46.3094 80.1069 46.3349 80.3083C46.3349 80.3643 46.3349 80.4179 46.3528 80.4739C46.3681 80.6192 46.3834 80.7671 46.3961 80.9098C46.3961 80.9787 46.4089 81.0475 46.414 81.1163C46.414 81.254 46.4318 81.3891 46.4369 81.5242C46.4369 81.5879 46.4369 81.6542 46.4369 81.7179C46.4369 81.9116 46.4369 82.1028 46.4369 82.2914C46.4369 82.4801 46.4369 82.6866 46.4242 82.8777C46.4242 82.9338 46.4242 82.9848 46.4242 83.0383C46.4242 83.1709 46.4063 83.2932 46.3961 83.4309L46.3732 83.6527C46.3604 83.7597 46.3477 83.8693 46.3324 83.9738C46.3171 84.0784 46.312 84.1293 46.2993 84.2058C46.2865 84.2823 46.2661 84.4021 46.2483 84.4964C46.2304 84.5907 46.2151 84.6672 46.1973 84.7513C46.1794 84.8354 46.1591 84.9247 46.1387 85.0062C46.1183 85.0878 46.0902 85.2 46.0622 85.2968C46.0341 85.3937 46.0189 85.4472 45.9985 85.5211C45.9628 85.6358 45.9245 85.748 45.8863 85.8576L45.82 86.0412C45.7486 86.2272 45.6747 86.4082 45.5932 86.5841C45.5269 86.7192 45.4606 86.8518 45.3892 86.9792L45.3663 87.02C45.3026 87.1322 45.2388 87.2418 45.17 87.3463C45.0604 87.5171 44.9431 87.6777 44.8208 87.8332L44.7316 87.9402C44.6166 88.0818 44.4941 88.2171 44.3645 88.3455L44.3339 88.3761C44.1977 88.5084 44.0538 88.6327 43.9031 88.7483L43.7935 88.8324C43.6425 88.946 43.485 89.0506 43.3219 89.1459L44.8131 88.2793C44.9763 88.184 45.1337 88.0793 45.2847 87.9657L45.3943 87.8816C45.545 87.766 45.6889 87.6417 45.8251 87.5094L45.8557 87.4788C45.9857 87.3514 46.1106 87.2239 46.2253 87.0735L46.312 86.9665C46.4344 86.811 46.5516 86.6504 46.6612 86.4796V86.4643C46.7249 86.3649 46.7861 86.2604 46.8473 86.1533L46.8702 86.1125C46.9391 85.9902 47.0053 85.8576 47.0665 85.7327V85.7174C47.1481 85.5415 47.222 85.3605 47.2934 85.1745C47.3013 85.1579 47.3081 85.1409 47.3138 85.1235C47.3316 85.0801 47.3444 85.0343 47.3597 84.9909C47.3979 84.8813 47.4361 84.7692 47.4718 84.6544C47.4718 84.6239 47.4922 84.5933 47.5024 84.5627C47.5126 84.5321 47.5228 84.4735 47.5356 84.4301C47.5636 84.3358 47.5891 84.2364 47.612 84.1395C47.612 84.0962 47.635 84.058 47.6426 84.0172C47.6503 83.9764 47.6605 83.928 47.6707 83.8821C47.6809 83.8362 47.7064 83.7138 47.7216 83.6272C47.7216 83.5813 47.7395 83.538 47.7497 83.4921L47.7726 83.334C47.7726 83.2576 47.7956 83.1811 47.8058 83.1046C47.816 83.0281 47.8058 83.023 47.8236 82.9823C47.8414 82.9415 47.8389 82.8472 47.8465 82.7783L47.8695 82.5591V82.4673C47.8695 82.3705 47.8695 82.2685 47.8899 82.1665C47.8899 82.113 47.8899 82.0595 47.8899 82.006C47.8887 81.9924 47.8887 81.9787 47.8899 81.9652C47.8899 81.7969 47.8899 81.6261 47.8899 81.4553V81.4248C47.946 81.2361 47.946 81.0755 47.9409 80.9149Z" fill="black"/>
<path d="M35.7894 63.785C41.6829 67.1906 46.4751 75.4879 46.4547 82.2608C46.4343 89.0337 41.6115 91.7868 35.718 88.3786L35.4631 88.2359C35.158 88.0376 34.9042 87.7702 34.7221 87.4552C34.54 87.1402 34.4349 86.7867 34.4154 86.4235C34.4154 85.7556 34.8895 85.488 35.4682 85.8219L35.7231 85.9646C40.4644 88.7024 44.3339 86.4974 44.3492 81.0475C44.3645 75.5975 40.5256 68.9367 35.7792 66.199L26.8803 61.0626V64.4478L35.3764 69.3701C38.5475 71.2003 41.1195 75.6561 41.1093 79.3115C41.0991 82.9669 38.5092 84.4326 35.3382 82.6024L32.2308 80.818L32.2053 89.9591C32.2053 90.4204 31.9734 90.711 31.6089 90.7034C31.4459 90.6958 31.2877 90.6457 31.15 90.5581C30.8893 90.3989 30.6679 90.1828 30.5026 89.9259L25.1138 81.8963C24.8693 81.5499 24.7311 81.1398 24.7161 80.7161L24.7467 69.7881C24.7467 69.1203 25.2183 68.8526 25.7995 69.1865L35.068 74.5396C35.3739 74.7369 35.6284 75.0042 35.8106 75.3194C35.9928 75.6345 36.0973 75.9885 36.1156 76.352C36.1156 77.0199 35.6415 77.2875 35.0629 76.9536L26.8446 72.2072L26.8242 81.3508L30.11 86.2348L30.1329 78.3684C30.1329 77.7056 30.6071 77.4354 31.1857 77.7693L35.3458 80.1706C37.357 81.3329 39.0012 80.3949 39.0063 78.0803C39.0114 75.7657 37.38 72.9413 35.3688 71.7815L25.8173 66.2576C25.5118 66.0588 25.2576 65.7904 25.0755 65.4746C24.8934 65.1587 24.7886 64.8042 24.7697 64.4401L24.7849 58.641C24.7849 57.9757 25.2591 57.7055 25.8403 58.0419L35.7894 63.785Z" fill="url(#paint5_linear_6412_3257)"/>
<path d="M75.0631 116.255L65.6799 113.607V63.8437L75.0631 66.4947V116.255Z" fill="url(#paint6_linear_6412_3257)"/>
<path d="M75.0631 116.255L65.6799 113.607V63.8437L66.488 64.0731V113.138L75.0631 115.656V116.255Z" fill="url(#paint7_linear_6412_3257)"/>
<path d="M104.52 36.5761L75.0657 66.4947L65.6799 63.8437L77.7167 51.6208L80.1307 49.166L102.787 36.0867L102.807 36.0918L104.52 36.5761Z" fill="url(#paint8_linear_6412_3257)"/>
<path d="M75.0632 116.255L104.52 86.3393V36.576L75.0632 66.4947V116.255Z" fill="url(#paint9_linear_6412_3257)"/>
<path d="M75.6443 66.8516L104.505 37.5396V86.3444L75.6443 115.656V66.8516Z" fill="url(#paint10_linear_6412_3257)"/>
<g style="mix-blend-mode:multiply">
<path d="M97.411 59.7549C95.257 58.5696 92.476 59.6351 89.5777 62.7603C86.8935 65.656 84.3826 70.0379 82.5065 75.0979C80.6304 80.1578 79.5955 85.3452 79.5955 89.6965C79.5955 94.3588 80.7731 97.5732 82.9093 98.7509C83.8375 99.2519 84.9264 99.3646 85.9376 99.0644C87.4339 98.6693 89.0679 97.5502 90.7401 95.7506C93.4243 92.8548 95.9351 88.4729 97.8112 83.413C99.6874 78.3531 100.722 73.1657 100.722 68.8144C100.725 64.1495 99.5472 60.9351 97.411 59.7549ZM89.6516 66.589L88.4561 74.6416C86.9266 76.2908 85.7056 79.6123 85.7056 82.0747C85.7056 83.3493 86.0446 84.1548 86.5851 84.3893L82.4504 93.2346C82.0693 91.8844 81.8923 90.4848 81.9253 89.0822C81.9253 81.8096 85.3029 72.1511 89.6516 66.589ZM89.5777 93.2066C87.4314 95.5212 85.4787 96.37 84.0768 95.5976C83.8908 95.4931 83.7193 95.3646 83.5669 95.2153L87.6174 84.7207C87.6403 84.6622 87.6574 84.6015 87.6684 84.5397C88.1094 85.5848 89.0602 85.6129 90.1665 84.4224C90.1838 84.3992 90.2026 84.3771 90.2226 84.3562L90.2787 84.2975C91.102 83.413 91.8285 81.9906 92.2925 80.507C92.3205 80.4229 92.346 80.3362 92.3715 80.2521L96.45 80.507C94.8186 85.4803 92.346 90.2242 89.5777 93.2066ZM97.1587 78.037L92.8074 78.3632C92.8786 77.9061 92.9161 77.4443 92.9195 76.9816C92.9195 75.7326 92.6034 74.9424 92.0911 74.6875L90.4189 73.8514H90.4061L90.3755 73.8361C90.1847 73.7463 89.969 73.7238 89.7638 73.7723L91.5481 66.4514L89.881 66.3112C90.164 65.9619 90.4495 65.628 90.7401 65.317C92.0478 63.9048 93.2892 63.0381 94.37 62.7526C94.9929 62.561 95.6663 62.6233 96.2435 62.926C97.6277 63.6907 98.3924 66.0027 98.3924 69.4389C98.3445 72.3454 97.9299 75.2342 97.1587 78.037Z" fill="#CCD4D3"/>
</g>
<path d="M95.5833 70.8256L92.7054 70.1348C92.1191 69.8569 91.3238 70.1348 90.4469 71.027C88.6447 72.87 87.1841 76.635 87.1841 79.4262C87.1841 80.6574 87.467 81.4961 87.9488 81.8912C88.0702 81.9957 88.2128 82.0727 88.3669 82.1167C88.5209 82.1607 88.6827 82.1707 88.841 82.1461L91.0689 82.7579L95.5833 70.8256Z" fill="url(#paint11_linear_6412_3257)"/>
<path d="M86.4856 93.9408L89.7816 81.9957C89.8736 81.7532 89.8672 81.4842 89.7637 81.2463L89.7382 81.2004C89.6917 81.091 89.6084 81.0014 89.5027 80.9469C89.397 80.8925 89.2757 80.8766 89.1596 80.9022C89.0523 80.9375 88.9543 80.9967 88.8731 81.0753C88.7919 81.1539 88.7295 81.2498 88.6906 81.3559L84.561 92.8625L86.4856 93.9408Z" fill="url(#paint12_linear_6412_3257)"/>
<path d="M93.3733 60.8995L91.7062 70.9225C91.688 71.045 91.705 71.1701 91.7551 71.2833C91.8052 71.3966 91.8863 71.4933 91.9891 71.5623C92.0982 71.6051 92.219 71.6076 92.3297 71.5693C92.4405 71.531 92.5339 71.4544 92.5932 71.3533L92.8354 71.0448C92.9412 70.9033 93.0103 70.7378 93.0368 70.5631L95.5859 60.8L93.3733 60.8995Z" fill="url(#paint13_linear_6412_3257)"/>
<path d="M88.8665 97.331C88.202 97.3349 87.5431 97.2093 86.9266 96.9614C84.1226 95.8169 82.5753 92.3144 82.5753 87.1015C82.5753 77.8381 87.2656 65.781 93.256 59.6555C97.4187 55.3985 100.541 55.7809 102.03 56.3901C104.834 57.5347 106.384 61.0346 106.384 66.25C106.384 75.5134 101.691 87.568 95.7006 93.6935C92.8838 96.5739 90.5463 97.331 88.8665 97.331ZM100.082 59.4312C98.9277 59.4312 97.3524 60.3616 95.7057 62.044C90.3526 67.5194 85.9962 78.7609 85.9962 87.1015C85.9962 91.3687 87.1458 93.357 88.2215 93.7954C89.389 94.2721 91.2804 93.3391 93.2611 91.305C98.6142 85.8295 102.971 74.5906 102.971 66.25C102.971 61.9828 101.821 59.992 100.745 59.5535C100.533 59.4687 100.306 59.4263 100.077 59.4286L100.082 59.4312Z" fill="url(#paint14_linear_6412_3257)"/>
<path d="M102.958 73.9227L91.9356 75.0316L91.7138 76.7446L102.109 76.8873C102.604 76.0131 102.892 75.0375 102.953 74.0349L102.958 73.9227Z" fill="url(#paint15_linear_6412_3257)"/>
<path d="M95.7364 77.6618C96.9358 74.3484 96.8179 71.2677 95.4729 70.7808C94.128 70.294 92.0654 72.5853 90.866 75.8987C89.6665 79.2121 89.7845 82.2928 91.1294 82.7796C92.4744 83.2665 94.537 80.9751 95.7364 77.6618Z" fill="url(#paint16_linear_6412_3257)"/>
<path d="M95.6663 77.8709C96.766 74.8328 96.6585 72.0084 95.4261 71.5622C94.1937 71.1161 92.3031 73.2172 91.2033 76.2553C90.1036 79.2933 90.2111 82.1178 91.4435 82.5639C92.676 83.01 94.5665 80.9089 95.6663 77.8709Z" fill="url(#paint17_linear_6412_3257)"/>
<path d="M94.1176 92.526C95.7289 90.4405 97.1429 88.2098 98.3414 85.8627C99.5485 83.5309 100.596 81.1198 101.477 78.6462L102.114 76.7828L102.675 74.894C102.838 74.2592 103.022 73.6194 103.169 72.9847C103.317 72.35 103.47 71.7102 103.575 71.055C103.679 70.3999 103.814 69.7601 103.876 69.105L103.99 68.1261C104.028 67.7999 104.034 67.471 104.059 67.1422C104.159 65.8241 104.176 64.501 104.107 63.1809H104.148C104.327 63.828 104.451 64.4888 104.52 65.1565C104.596 65.824 104.628 66.4959 104.615 67.1677C104.615 67.5016 104.615 67.8381 104.602 68.1746L104.541 69.1789C104.513 69.8519 104.411 70.5146 104.342 71.1825C104.273 71.8504 104.138 72.508 104.039 73.1733C103.939 73.8386 103.771 74.4887 103.638 75.1463C103.506 75.804 103.305 76.4464 103.129 77.0989L102.537 79.026C101.683 81.5785 100.572 84.0381 99.2234 86.3674C97.8622 88.682 96.2334 90.8818 94.1992 92.6331L94.1176 92.526Z" fill="url(#paint18_linear_6412_3257)"/>
<path d="M97.6812 58.2969C96.4215 59.0405 95.2939 59.9881 94.3444 61.1009C93.3924 62.2002 92.5217 63.3673 91.7393 64.5931C90.1847 67.0522 88.8645 69.6518 87.7958 72.3576C86.7079 75.0571 85.8351 77.8383 85.1856 80.6753C85.0301 81.384 84.8567 82.0926 84.7471 82.8115L84.5559 83.8872L84.4132 84.968C84.2175 86.4176 84.1263 87.8795 84.1404 89.3422L84.013 89.355C83.8809 88.6245 83.7957 87.8863 83.7581 87.1449L83.73 86.0309V85.4727L83.7428 84.9195L83.7938 83.803C83.8269 83.4334 83.8651 83.0638 83.9059 82.6942C83.9748 81.9499 84.1073 81.2183 84.222 80.4816C84.7581 77.5508 85.6129 74.6873 86.7711 71.9421L87.2044 70.9225L87.676 69.9029C87.9768 69.2223 88.3464 68.5748 88.6957 67.9146C89.0449 67.2544 89.4425 66.6247 89.8147 65.9824L90.4341 65.052C90.6406 64.741 90.8471 64.43 91.074 64.1368L91.7418 63.2396C91.9738 62.9464 92.2261 62.6686 92.4658 62.3831C92.9322 61.8044 93.4854 61.2895 93.9952 60.7593C95.0786 59.7422 96.2919 58.8194 97.6812 58.2969Z" fill="url(#paint19_linear_6412_3257)"/>
<path d="M73.0366 86.0615C73.0366 84.4708 71.7621 82.8471 70.1587 82.4367C69.2538 82.2022 68.4457 82.4112 67.9181 82.9312L63.8599 87.0301L68.2749 91.8734L72.3535 87.7311C72.5766 87.5152 72.7525 87.2553 72.8701 86.9679C72.9877 86.6805 73.0444 86.3719 73.0366 86.0615Z" fill="url(#paint20_linear_6412_3257)"/>
<path d="M70.1485 90.6423C69.7706 90.525 69.3689 90.5067 68.9819 90.5893C68.5949 90.6719 68.2356 90.8525 67.9385 91.1139L63.9288 95.1924L68.3081 100.061L72.3866 95.9291C72.6039 95.7117 72.7741 95.452 72.8868 95.1661C72.9995 94.8802 73.0522 94.5742 73.0418 94.2671C73.0367 92.6765 71.7392 91.0527 70.1485 90.6423Z" fill="url(#paint21_linear_6412_3257)"/>
<path opacity="0.5" d="M70.3729 92.3119L67.7499 95.3198C67.7499 95.3198 68.5146 95.8016 68.7389 96.4949L71.4282 93.4156C71.3364 93.1697 71.1955 92.945 71.0141 92.7552C70.8326 92.5655 70.6145 92.4146 70.3729 92.3119Z" fill="url(#paint22_linear_6412_3257)"/>
<path d="M68.2775 91.8747C69.3276 90.9518 69.2107 89.1022 68.0165 87.7433C66.8223 86.3844 65.0029 86.031 63.9529 86.9538C62.9028 87.8766 63.0196 89.7263 64.2138 91.0852C65.408 92.4441 67.2274 92.7975 68.2775 91.8747Z" fill="url(#paint23_linear_6412_3257)"/>
<path d="M67.94 91.9083C68.9193 91.0478 68.8098 89.3223 67.6955 88.0543C66.5812 86.7864 64.8841 86.4562 63.9048 87.3168C62.9256 88.1774 63.0351 89.9029 64.1494 91.1708C65.2637 92.4387 66.9608 92.7689 67.94 91.9083Z" fill="url(#paint24_linear_6412_3257)"/>
<path d="M68.9938 98.3608C68.9938 99.9515 67.7065 100.91 66.1158 100.494C64.5252 100.079 63.2379 98.4552 63.2379 96.8722C63.2379 95.2892 64.5252 94.3231 66.1158 94.7386C67.7065 95.1541 68.9938 96.7728 68.9938 98.3608Z" fill="url(#paint25_linear_6412_3257)"/>
<path d="M67.94 100.114C68.9192 99.2532 68.8097 97.5277 67.6954 96.2598C66.5811 94.9919 64.884 94.6617 63.9048 95.5222C62.9255 96.3828 63.035 98.1083 64.1493 99.3762C65.2636 100.644 66.9607 100.974 67.94 100.114Z" fill="url(#paint26_linear_6412_3257)"/>
<path opacity="0.5" d="M70.3729 84.0171L67.7499 87.0174C67.7499 87.0174 68.5146 87.4991 68.7389 88.1899L71.4282 85.1132C71.3355 84.8687 71.1942 84.6454 71.0128 84.4571C70.8314 84.2687 70.6137 84.119 70.3729 84.0171Z" fill="url(#paint27_linear_6412_3257)"/>
</g>
<defs>
<linearGradient id="paint0_linear_6412_3257" x1="13.3421" y1="91.0858" x2="108.775" y2="91.0858" gradientUnits="userSpaceOnUse">
<stop stop-color="#7F39BB"/>
<stop offset="0.23" stop-color="#8D4EC5"/>
<stop offset="0.71" stop-color="#B183DD"/>
<stop offset="1" stop-color="#C9A7EE"/>
</linearGradient>
<linearGradient id="paint1_linear_6412_3257" x1="57.7753" y1="72.2302" x2="108.775" y2="72.2302" gradientUnits="userSpaceOnUse">
<stop stop-color="#7F39BB"/>
<stop offset="0.22" stop-color="#6F31A6"/>
<stop offset="0.67" stop-color="#471D71"/>
<stop offset="1" stop-color="#270D46"/>
</linearGradient>
<linearGradient id="paint2_linear_6412_3257" x1="13.3421" y1="74.1267" x2="57.7752" y2="74.1267" gradientUnits="userSpaceOnUse">
<stop stop-color="#7F39BB"/>
<stop offset="0.22" stop-color="#6F31A6"/>
<stop offset="0.67" stop-color="#471D71"/>
<stop offset="1" stop-color="#270D46"/>
</linearGradient>
<linearGradient id="paint3_linear_6412_3257" x1="13.3447" y1="27.5829" x2="108.775" y2="27.5829" gradientUnits="userSpaceOnUse">
<stop stop-color="#7F39BB"/>
<stop offset="0.23" stop-color="#8D4EC5"/>
<stop offset="0.71" stop-color="#B183DD"/>
<stop offset="1" stop-color="#C9A7EE"/>
</linearGradient>
<linearGradient id="paint4_linear_6412_3257" x1="108.775" y1="27.5854" x2="13.3421" y2="27.5854" gradientUnits="userSpaceOnUse">
<stop stop-color="#7F39BB"/>
<stop offset="0.23" stop-color="#8D4EC5"/>
<stop offset="0.71" stop-color="#B183DD"/>
<stop offset="1" stop-color="#C9A7EE"/>
</linearGradient>
<linearGradient id="paint5_linear_6412_3257" x1="24.7238" y1="74.2847" x2="46.4547" y2="74.2847" gradientUnits="userSpaceOnUse">
<stop stop-color="#7F39BB"/>
<stop offset="0.23" stop-color="#8D4EC5"/>
<stop offset="0.71" stop-color="#B183DD"/>
<stop offset="1" stop-color="#C9A7EE"/>
</linearGradient>
<linearGradient id="paint6_linear_6412_3257" x1="65.6799" y1="90.0509" x2="75.0657" y2="90.0509" gradientUnits="userSpaceOnUse">
<stop stop-color="#7F39BB"/>
<stop offset="0.22" stop-color="#6F31A6"/>
<stop offset="0.67" stop-color="#471D71"/>
<stop offset="1" stop-color="#270D46"/>
</linearGradient>
<linearGradient id="paint7_linear_6412_3257" x1="75.0657" y1="90.0509" x2="65.6799" y2="90.0509" gradientUnits="userSpaceOnUse">
<stop stop-color="#7F39BB"/>
<stop offset="0.22" stop-color="#6F31A6"/>
<stop offset="0.67" stop-color="#471D71"/>
<stop offset="1" stop-color="#270D46"/>
</linearGradient>
<linearGradient id="paint8_linear_6412_3257" x1="65.6799" y1="51.2894" x2="104.52" y2="51.2894" gradientUnits="userSpaceOnUse">
<stop stop-color="#7F39BB"/>
<stop offset="0.23" stop-color="#8D4EC5"/>
<stop offset="0.71" stop-color="#B183DD"/>
<stop offset="1" stop-color="#C9A7EE"/>
</linearGradient>
<linearGradient id="paint9_linear_6412_3257" x1="104.52" y1="76.4157" x2="75.0657" y2="76.4157" gradientUnits="userSpaceOnUse">
<stop stop-color="#7F39BB"/>
<stop offset="0.22" stop-color="#6F31A6"/>
<stop offset="0.67" stop-color="#471D71"/>
<stop offset="1" stop-color="#270D46"/>
</linearGradient>
<linearGradient id="paint10_linear_6412_3257" x1="75.6443" y1="76.5993" x2="104.505" y2="76.5993" gradientUnits="userSpaceOnUse">
<stop stop-color="#7F39BB"/>
<stop offset="0.22" stop-color="#6F31A6"/>
<stop offset="0.67" stop-color="#471D71"/>
<stop offset="1" stop-color="#270D46"/>
</linearGradient>
<linearGradient id="paint11_linear_6412_3257" x1="87.1815" y1="76.3852" x2="95.5833" y2="76.3852" gradientUnits="userSpaceOnUse">
<stop stop-color="#7F39BB"/>
<stop offset="0.22" stop-color="#6F31A6"/>
<stop offset="0.67" stop-color="#471D71"/>
<stop offset="1" stop-color="#270D46"/>
</linearGradient>
<linearGradient id="paint12_linear_6412_3257" x1="84.561" y1="87.4125" x2="89.8453" y2="87.4125" gradientUnits="userSpaceOnUse">
<stop stop-color="#7F39BB"/>
<stop offset="0.23" stop-color="#8D4EC5"/>
<stop offset="0.71" stop-color="#B183DD"/>
<stop offset="1" stop-color="#C9A7EE"/>
</linearGradient>
<linearGradient id="paint13_linear_6412_3257" x1="91.7062" y1="66.2016" x2="95.5859" y2="66.2016" gradientUnits="userSpaceOnUse">
<stop stop-color="#7F39BB"/>
<stop offset="0.23" stop-color="#8D4EC5"/>
<stop offset="0.71" stop-color="#B183DD"/>
<stop offset="1" stop-color="#C9A7EE"/>
</linearGradient>
<linearGradient id="paint14_linear_6412_3257" x1="82.5753" y1="76.6758" x2="106.384" y2="76.6758" gradientUnits="userSpaceOnUse">
<stop stop-color="#7F39BB"/>
<stop offset="0.23" stop-color="#8D4EC5"/>
<stop offset="0.71" stop-color="#B183DD"/>
<stop offset="1" stop-color="#C9A7EE"/>
</linearGradient>
<linearGradient id="paint15_linear_6412_3257" x1="91.7138" y1="75.4063" x2="102.958" y2="75.4063" gradientUnits="userSpaceOnUse">
<stop stop-color="#7F39BB"/>
<stop offset="0.23" stop-color="#8D4EC5"/>
<stop offset="0.71" stop-color="#B183DD"/>
<stop offset="1" stop-color="#C9A7EE"/>
</linearGradient>
<linearGradient id="paint16_linear_6412_3257" x1="90.0384" y1="76.78" x2="96.564" y2="76.78" gradientUnits="userSpaceOnUse">
<stop stop-color="#7F39BB"/>
<stop offset="0.22" stop-color="#6F31A6"/>
<stop offset="0.67" stop-color="#471D71"/>
<stop offset="1" stop-color="#270D46"/>
</linearGradient>
<linearGradient id="paint17_linear_6412_3257" x1="90.4468" y1="77.0617" x2="96.427" y2="77.0617" gradientUnits="userSpaceOnUse">
<stop stop-color="#7F39BB"/>
<stop offset="0.23" stop-color="#8D4EC5"/>
<stop offset="0.71" stop-color="#B183DD"/>
<stop offset="1" stop-color="#C9A7EE"/>
</linearGradient>
<linearGradient id="paint18_linear_6412_3257" x1="104.615" y1="77.8993" x2="94.1176" y2="77.8993" gradientUnits="userSpaceOnUse">
<stop stop-color="#7F39BB"/>
<stop offset="0.23" stop-color="#8D4EC5"/>
<stop offset="0.71" stop-color="#B183DD"/>
<stop offset="1" stop-color="#C9A7EE"/>
</linearGradient>
<linearGradient id="paint19_linear_6412_3257" x1="97.6812" y1="73.8259" x2="83.7122" y2="73.8259" gradientUnits="userSpaceOnUse">
<stop stop-color="#7F39BB"/>
<stop offset="0.23" stop-color="#8D4EC5"/>
<stop offset="0.71" stop-color="#B183DD"/>
<stop offset="1" stop-color="#C9A7EE"/>
</linearGradient>
<linearGradient id="paint20_linear_6412_3257" x1="63.8701" y1="87.104" x2="73.0264" y2="87.104" gradientUnits="userSpaceOnUse">
<stop stop-color="#7F39BB"/>
<stop offset="0.22" stop-color="#6F31A6"/>
<stop offset="0.67" stop-color="#471D71"/>
<stop offset="1" stop-color="#270D46"/>
</linearGradient>
<linearGradient id="paint21_linear_6412_3257" x1="63.916" y1="95.302" x2="73.0265" y2="95.302" gradientUnits="userSpaceOnUse">
<stop stop-color="#7F39BB"/>
<stop offset="0.22" stop-color="#6F31A6"/>
<stop offset="0.67" stop-color="#471D71"/>
<stop offset="1" stop-color="#270D46"/>
</linearGradient>
<linearGradient id="paint22_linear_6412_3257" x1="67.7499" y1="94.4072" x2="71.4282" y2="94.4072" gradientUnits="userSpaceOnUse">
<stop stop-color="#7F39BB"/>
<stop offset="0.23" stop-color="#8D4EC5"/>
<stop offset="0.71" stop-color="#B183DD"/>
<stop offset="1" stop-color="#C9A7EE"/>
</linearGradient>
<linearGradient id="paint23_linear_6412_3257" x1="63.2407" y1="89.4121" x2="68.9966" y2="89.4121" gradientUnits="userSpaceOnUse">
<stop stop-color="#7F39BB"/>
<stop offset="0.22" stop-color="#6F31A6"/>
<stop offset="0.67" stop-color="#471D71"/>
<stop offset="1" stop-color="#270D46"/>
</linearGradient>
<linearGradient id="paint24_linear_6412_3257" x1="63.2396" y1="89.6103" x2="68.6106" y2="89.6103" gradientUnits="userSpaceOnUse">
<stop stop-color="#7F39BB"/>
<stop offset="0.23" stop-color="#8D4EC5"/>
<stop offset="0.71" stop-color="#B183DD"/>
<stop offset="1" stop-color="#C9A7EE"/>
</linearGradient>
<linearGradient id="paint25_linear_6412_3257" x1="63.2379" y1="97.6165" x2="68.9938" y2="97.6165" gradientUnits="userSpaceOnUse">
<stop stop-color="#7F39BB"/>
<stop offset="0.22" stop-color="#6F31A6"/>
<stop offset="0.67" stop-color="#471D71"/>
<stop offset="1" stop-color="#270D46"/>
</linearGradient>
<linearGradient id="paint26_linear_6412_3257" x1="63.2395" y1="97.8156" x2="68.6105" y2="97.8156" gradientUnits="userSpaceOnUse">
<stop stop-color="#7F39BB"/>
<stop offset="0.23" stop-color="#8D4EC5"/>
<stop offset="0.71" stop-color="#B183DD"/>
<stop offset="1" stop-color="#C9A7EE"/>
</linearGradient>
<linearGradient id="paint27_linear_6412_3257" x1="67.7499" y1="86.1048" x2="71.4282" y2="86.1048" gradientUnits="userSpaceOnUse">
<stop stop-color="#7F39BB"/>
<stop offset="0.23" stop-color="#8D4EC5"/>
<stop offset="0.71" stop-color="#B183DD"/>
<stop offset="1" stop-color="#C9A7EE"/>
</linearGradient>
<clipPath id="clip0_6412_3257">
<rect width="120.801" height="125.93" fill="white" transform="translate(0.897461 0.0349121)"/>
</clipPath>
</defs>
</svg>
